# AST/ASF file generated using VICON BodyLanguage
# -----------------------------------------------
:version 1.10
:name VICON
:units
  mass 1.0
  length 0.45
  angle deg
:documentation
   .ast/.asf automatically generated from VICON data using
   VICON BodyBuilder and BodyLanguage model FoxedUp or BRILLIANT.MOD
:root
   order TX TY TZ RX RY RZ
   axis XYZ
   position 0 0 0  
   orientation 0 0 0 
:bonedata
  begin
     id 1 
     name lhipjoint
     direction 0.635376 -0.686425 0.353719 
     length 2.47244 
     axis 0 0 0  XYZ
  end
  begin
     id 2 
     name lfemur
     direction 0.34202 -0.939693 0  
     length 7.25268  
     axis 0 0 20  XYZ
    dof rx ry rz
    limits (-160.0 20.0)
           (-70.0 70.0)
           (-60.0 70.0)
  end
  begin
     id 3 
     name ltibia
     direction 0.34202 -0.939693 0   
     length 7.6767   
     axis 0 0 20   XYZ
    dof rx
    limits (-10.0 170.0)
  end
  begin
     id 4 
     name lfoot
     direction 0.0803374 -0.220725 0.972022   
     length 2.22945   
     axis -90 7.62852e-016 20   XYZ
    dof rx rz
    limits (-45.0 90.0)
           (-70.0 20.0)
  end
  begin
     id 5 
     name ltoes
     direction 1.53579e-011 -4.21994e-011 1   
     length 1.11848   
     axis -90 7.62852e-016 20   XYZ
    dof rx
    limits (-90.0 20.0)
  end
  begin
     id 6 
     name rhipjoint
     direction -0.664428 -0.664335 0.342336   
     length 2.55466  
     axis 0 0 0  XYZ 
  end
  begin
     id 7 
     name rfemur
     direction -0.34202 -0.939693 0   
     length 6.83172   
     axis 0 0 -20   XYZ
    dof rx ry rz
    limits (-160.0 20.0)
           (-70.0 70.0)
           (-70.0 60.0)
  end
  begin
     id 8 
     name rtibia
     direction -0.34202 -0.939693 0   
     length 7.62692   
     axis 0 0 -20   XYZ
    dof rx
    limits (-10.0 170.0)
 end
 begin
     id 9 
     name rfoot
     direction -0.0949276 -0.260811 0.960711   
     length 2.19684  
     axis -90 -7.62852e-016 -20   XYZ
    dof rx rz
    limits (-45.0 90.0)
           (-20.0 70.0)
  end
  begin
     id 10 
     name rtoes
     direction -1.53543e-011 -4.2183e-011 1   
     length 1.09848   
     axis -90 -7.62852e-016 -20   XYZ
    dof rx
    limits (-90.0 20.0)
  end
  begin
     id 11 
     name lowerback
     direction 0.0118782 0.999815 -0.0151555   
     length 2.15772   
     axis 0 0 0   XYZ
    dof rx ry rz
    limits (-20.0 45.0)
           (-30.0 30.0)
           (-30.0 30.0)
  end
  begin
     id 12 
     name upperback
     direction 0.00130825 0.999065 0.0432113   
     length 2.14863   
     axis 0 0 0   XYZ
    dof rx ry rz
    limits (-20.0 45.0)
           (-30.0 30.0)
           (-30.0 30.0)
  end
  begin
     id 13 
     name thorax
     direction -0.00347005 0.998773 0.0494011   
     length 2.14936   
     axis 0 0 0   XYZ
    dof rx ry rz
    limits (-20.0 45.0)
           (-30.0 30.0)
           (-30.0 30.0)
  end
  begin
     id 14 
     name lowerneck
     direction -0.0262159 0.99424 0.103921   
     length 1.69373   
     axis 0 0 0   XYZ
    dof rx ry rz
    limits (-20.0 45.0)
           (-30.0 30.0)
           (-30.0 30.0)
  end
  begin
     id 15 
     name upperneck
     direction 0.0353511 0.977394 -0.20845   
     length 1.70857   
     axis 0 0 0   XYZ
    dof rx ry rz
    limits (-20.0 45.0)
           (-30.0 30.0)
           (-30.0 30.0)
  end
  begin
     id 16
     name head
     direction 0.0139214 0.996594 -0.0812836  
     length 1.72777  
     axis 0 0 0   XYZ
    dof rx ry rz
    limits (-20.0 45.0)
           (-30.0 30.0)
           (-30.0 30.0)
  end
  begin
     id 17 
     name lclavicle
     direction 0.841247 0.537205 -0.0609508  
     length 3.55371  
     axis 0 0 0   XYZ
    dof ry rz
    limits (-20.0 10.0)
           (0.0 20.0)
  end
  begin
     id 18 
     name lhumerus
     direction 1 -4.48964e-011 1.60116e-018   
     length 4.91377   
     axis -180 -30 -90   XYZ
    dof rx ry rz
    limits (-60.0 90.0)
           (-90.0 90.0)
           (-90.0 90.0)
  end
  begin
     id 19
     name lradius
     direction 1 -4.48989e-011 -8.93847e-027   
     length 3.00291   
     axis -180 -30 -90   XYZ
    dof rx
    limits (-10.0 170.0)
  end
  begin
     id 20
     name lwrist
     direction 1 -4.48932e-011 -7.31504e-027   
     length 1.50145   
     axis 5.74121e-015 90 90   XYZ
    dof ry
    limits (-180.0 0.0)
 end
  begin
     id 21 
     name lhand
     direction 1 -4.48971e-011 -1.46301e-026   
     length 0.450922   
     axis 9.33524e-015 90 90   XYZ
    dof rx rz
    limits (-90.0 90.0)
           (-45.0 45.0)
  end
  begin
     id 22 
     name lfingers
     direction 1 -4.49039e-011 -2.92602e-026   
     length 0.363545   
     axis 1.86705e-014 90 90   XYZ
    dof rx
    limits (0.0 90.0)
  end
  begin
     id 23
     name lthumb
     direction 0.707107 -6.34941e-011 0.707107   
     length 0.52198   
     axis -90 45 2.85299e-015   XYZ
    dof rx rz
    limits (-45.0 45.0)
           (-45.0 45.0)
  end
  begin
     id 24 
     name rclavicle
     direction -0.825079 0.56158 -0.0622297   
     length 3.39909  
     axis 0 0 0   XYZ 
    dof ry rz
    limits (-10.0 20.0)
           (-20.0 0.0)
  end
  begin
     id 25 
     name rhumerus
     direction -1 -4.48965e-011 1.61691e-027  
     length 4.86725   
     axis -180 30 90   XYZ
    dof rx ry rz
    limits (-90.0 60.0)
           (-90.0 90.0)
           (-90.0 90.0)
  end
  begin
     id 26 
     name rradius
     direction -1 -4.48964e-011 -2.25776e-027   
     length 3.17144   
     axis -180 30 90   XYZ
    dof rx
    limits (-10.0 170.0)
  end
  begin
     id 27 
     name rwrist
     direction -1 -4.48961e-011 -7.31504e-027   
     length 1.58572   
     axis 5.74121e-015 -90 -90   XYZ
    dof ry
    limits (-180.0 0.0)
  end
  begin
     id 28
     name rhand
     direction -1 -4.49013e-011 -1.46301e-026   
     length 0.419368   
     axis 9.33524e-015 -90 -90   XYZ
    dof rx rz
    limits (-90.0 90.0)
           (-45.0 45.0)
  end
  begin
     id 29
     name rfingers
     direction -1 -4.489e-011 -2.92602e-026   
     length 0.338105   
     axis 1.86705e-014 -90 -90   XYZ
    dof rx
    limits (0.0 90.0)
  end
  begin
     id 30
     name rthumb
     direction -0.707107 -6.35022e-011 0.707107   
     length 0.485453   
     axis -90 -45 -2.85299e-015   XYZ
    dof rx rz
    limits (-45.0 45.0)
           (-45.0 45.0)
  end
:hierarchy
  begin
    root lhipjoint rhipjoint lowerback
    lhipjoint lfemur
    lfemur ltibia
    ltibia lfoot
    lfoot ltoes
    rhipjoint rfemur
    rfemur rtibia
    rtibia rfoot
    rfoot rtoes
    lowerback upperback
    upperback thorax
    thorax lowerneck lclavicle rclavicle
    lowerneck upperneck
    upperneck head
    lclavicle lhumerus
    lhumerus lradius
    lradius lwrist
    lwrist lhand lthumb
    lhand lfingers
    rclavicle rhumerus
    rhumerus rradius
    rradius rwrist
    rwrist rhand rthumb
    rhand rfingers
  end

#!OML:ASF H:\Swim 2\Project 1\Capture day 1\Session 1\male.ASF
:FULLY-SPECIFIED
:DEGREES
1057
root 7.73465 9.77855 12.5675 103.533 -2.80689 3.38781
lowerback -11.1636 1.93964 6.26238
upperback -7.15466 2.09575 -6.75059
thorax -0.845197 0.762638 -10.5807
lowerneck -9.25483 -2.60818 0.0125695
upperneck 31.3082 -4.61816 3.77733
head 11.8622 -1.53636 0.839569
rclavicle 2.62396e-014 -5.52621e-014
rhumerus 44.6238 -5.3975 -26.5837
rradius 33.4318
rwrist -15.5671
rhand -38.2532 -13.0683
rfingers 7.12502
rthumb -11.2835 -42.7448
lclavicle 2.62396e-014 -5.52621e-014
lhumerus 51.8682 -9.15398 5.33248
lradius 34.5951
lwrist 35.9986
lhand -35.6595 3.40668
lfingers 7.12502
lthumb -8.78121 33.204
rfemur -31.1808 8.52648 16.4973
rtibia 25.159
rfoot 16.4796 -11.7791
rtoes 21.0243
lfemur -34.8035 -13.1144 -18.6364
ltibia 35.0349
lfoot 8.6504 1.419
ltoes 31.281
1058
root 7.7378 9.77113 12.5343 102.924 -2.77126 3.41715
lowerback -10.7355 1.91063 6.18329
upperback -7.04354 2.08189 -6.73563
thorax -0.963918 0.75712 -10.5231
lowerneck -9.33361 -2.67485 0.0444298
upperneck 31.0265 -4.73177 3.85039
head 11.7703 -1.57945 0.8439
rclavicle 3.97569e-015 1.28216e-014
rhumerus 43.0448 -4.5332 -26.8451
rradius 34.7842
rwrist -17.9287
rhand -37.8155 -14.1694
rfingers 7.12502
rthumb -10.8613 -43.8686
lclavicle 3.97569e-015 1.28216e-014
lhumerus 50.6809 -10.1766 5.82247
lradius 35.7511
lwrist 38.122
lhand -35.9675 4.18484
lfingers 7.12502
lthumb -9.07844 33.9695
rfemur -31.1311 7.78726 16.957
rtibia 25.8725
rfoot 16.2915 -12.1315
rtoes 21.2651
lfemur -34.5862 -12.524 -19.0218
ltibia 35.2628
lfoot 8.41373 1.81226
ltoes 31.2726
1059
root 7.74083 9.76481 12.5005 102.31 -2.73214 3.44757
lowerback -10.3085 1.89767 6.08119
upperback -6.93459 2.09145 -6.7142
thorax -1.08032 0.764824 -10.442
lowerneck -9.43784 -2.76044 0.0735016
upperneck 30.7778 -4.86616 3.90405
head 11.6974 -1.63289 0.838856
rclavicle 0 2.18663e-015
rhumerus 41.4443 -3.71935 -27.1699
rradius 36.317
rwrist -20.4685
rhand -37.1724 -15.0425
rfingers 7.12502
rthumb -10.241 -44.7732
lclavicle 0 2.18663e-015
lhumerus 49.5491 -11.1175 6.58216
lradius 37.09
lwrist 40.5272
lhand -36.3248 4.47672
lfingers 7.12502
lthumb -9.42321 34.2461
rfemur -31.0576 7.0134 17.4167
rtibia 26.6257
rfoot 16.1903 -12.3802
rtoes 21.4146
lfemur -34.3515 -11.9185 -19.3877
ltibia 35.5508
lfoot 8.26973 2.17898
ltoes 31.4391
1060
root 7.74369 9.75974 12.4665 101.71 -2.69187 3.46986
lowerback -9.89915 1.89953 5.96412
upperback -6.83145 2.12103 -6.68995
thorax -1.18989 0.783653 -10.3468
lowerneck -9.58198 -2.85296 0.1047
upperneck 30.5592 -5.0055 3.93438
head 11.6443 -1.68965 0.823831
rclavicle -2.70347e-014 3.89618e-014
rhumerus 39.8316 -2.95005 -27.5353
rradius 38.0417
rwrist -23.1485
rhand -36.3455 -15.6524
rfingers 7.12502
rthumb -9.44322 -45.4208
lclavicle -2.70347e-014 3.89618e-014
lhumerus 48.4456 -11.9669 7.55098
lradius 38.6295
lwrist 43.1604
lhand -36.6404 4.32618
lfingers 7.12502
lthumb -9.7277 34.0815
rfemur -30.9747 6.23691 17.8563
rtibia 27.3957
rfoot 16.1891 -12.4818
rtoes 21.4842
lfemur -34.1187 -11.311 -19.7236
ltibia 35.8859
lfoot 8.2142 2.50053
ltoes 31.6641
1061
root 7.74621 9.75589 12.4326 101.145 -2.65714 3.48862
lowerback -9.52732 1.90998 5.83445
upperback -6.7379 2.16087 -6.66687
thorax -1.28785 0.808382 -10.2446
lowerneck -9.76738 -2.93659 0.131158
upperneck 30.3513 -5.12727 3.94494
head 11.603 -1.74076 0.803935
rclavicle 8.74653e-015 2.62396e-014
rhumerus 38.216 -2.21372 -27.9384
rradius 39.9591
rwrist -25.8303
rhand -35.3486 -16.0079
rfingers 7.12502
rthumb -8.48122 -45.8176
lclavicle 8.74653e-015 2.62396e-014
lhumerus 47.3403 -12.7236 8.6779
lradius 40.3718
lwrist 45.9157
lhand -36.7299 3.84006
lfingers 7.12502
lthumb -9.81402 33.5914
rfemur -30.8956 5.48814 18.2531
rtibia 28.1634
rfoot 16.2839 -12.428
rtoes 21.4848
lfemur -33.9091 -10.7149 -20.0255
ltibia 36.257
lfoot 8.23439 2.75306
ltoes 31.8899
1062
root 7.74849 9.75326 12.3988 100.647 -2.62776 3.49967
lowerback -9.22278 1.92737 5.70407
upperback -6.66126 2.20668 -6.6488
thorax -1.36623 0.836392 -10.1465
lowerneck -9.98987 -3.00073 0.136677
upperneck 30.1225 -5.21859 3.95727
head 11.5611 -1.78085 0.791381
rclavicle -1.03368e-014 6.01324e-014
rhumerus 36.6049 -1.48428 -28.3614
rradius 42.0588
rwrist -28.3381
rhand -34.2032 -16.1136
rfingers 7.12502
rthumb -7.37569 -45.965
lclavicle -1.03368e-014 6.01324e-014
lhumerus 46.204 -13.4049 9.88774
lradius 42.3113
lwrist 48.6711
lhand -36.5028 3.15822
lfingers 7.12502
lthumb -9.59495 32.9197
rfemur -30.8487 4.7975 18.5944
rtibia 28.9141
rfoot 16.4689 -12.2175
rtoes 21.4239
lfemur -33.7558 -10.1421 -20.2823
ltibia 36.6556
lfoot 8.31569 2.93715
ltoes 32.0779
1063
root 7.75059 9.75196 12.3653 100.183 -2.60389 3.51181
lowerback -8.94556 1.94252 5.58711
upperback -6.59118 2.24649 -6.63913
thorax -1.43797 0.86067 -10.0667
lowerneck -10.2435 -3.04966 0.109747
upperneck 29.8636 -5.29149 4.0029
head 11.5155 -1.81316 0.798252
rclavicle -3.33958e-014 6.48038e-014
rhumerus 35.0005 -0.738075 -28.8016
rradius 44.3238
rwrist -30.4852
rhand -32.9066 -15.9845
rfingers 7.12502
rthumb -6.12401 -45.876
lclavicle -3.33958e-014 6.48038e-014
lhumerus 45.0137 -14.0394 11.1009
lradius 44.4325
lwrist 51.2907
lhand -35.8838 2.37817
lfingers 7.12502
lthumb -8.99771 32.1663
rfemur -30.7911 4.18333 18.8772
rtibia 29.6403
rfoot 16.713 -11.8715
rtoes 21.3055
lfemur -33.6205 -9.61948 -20.4978
ltibia 37.0746
lfoot 8.4186 3.04296
ltoes 32.2004
1064
root 7.7526 9.7519 12.332 99.7584 -2.57977 3.52629
lowerback -8.70207 1.95944 5.48452
upperback -6.53169 2.28578 -6.63684
thorax -1.5025 0.88398 -10.0037
lowerneck -10.506 -3.08956 0.0527746
upperneck 29.5631 -5.3539 4.08374
head 11.4576 -1.84116 0.824081
rclavicle -1.66979e-014 -2.74323e-014
rhumerus 33.3783 0.0446146 -29.2449
rradius 46.7367
rwrist -32.1251
rhand -31.4989 -15.6023
rfingers 7.12502
rthumb -4.7649 -45.5287
lclavicle -1.66979e-014 -2.74323e-014
lhumerus 43.7726 -14.6873 12.2529
lradius 46.7029
lwrist 53.6163
lhand -34.9065 1.56165
lfingers 7.12502
lthumb -8.05457 31.3882
rfemur -30.7265 3.65809 19.1059
rtibia 30.3415
rfoot 16.9822 -11.4132
rtoes 21.0946
lfemur -33.507 -9.16042 -20.6629
ltibia 37.5091
lfoot 8.51869 3.07477
ltoes 32.2722
1065
root 7.75454 9.75294 12.2988 99.3663 -2.55293 3.5373
lowerback -8.48589 1.98696 5.38918
upperback -6.48037 2.33771 -6.64217
thorax -1.55797 0.913645 -9.95222
lowerneck -10.7628 -3.14862 -0.0709059
upperneck 29.2267 -5.46311 4.29441
head 11.393 -1.88304 0.902656
rclavicle 7.95139e-016 1.43125e-014
rhumerus 31.709 0.850512 -29.6955
rradius 49.2759
rwrist -33.1571
rhand -29.9433 -14.98
rfingers 7.12502
rthumb -3.26269 -44.9348
lclavicle 7.95139e-016 1.43125e-014
lhumerus 42.5071 -15.4216 13.2781
lradius 49.0809
lwrist 55.4871
lhand -33.6964 0.684585
lfingers 7.12502
lthumb -6.88649 30.5526
rfemur -30.646 3.22982 19.2858
rtibia 31.0204
rfoot 17.241 -10.8712
rtoes 20.7974
lfemur -33.4035 -8.76768 -20.7781
ltibia 37.9575
lfoot 8.5931 3.04775
ltoes 32.3398
1066
root 7.75639 9.75489 12.2658 99.0024 -2.52579 3.53814
lowerback -8.29467 2.03758 5.28131
upperback -6.43571 2.42106 -6.65612
thorax -1.60052 0.960364 -9.89995
lowerneck -11.0249 -3.24029 -0.225508
upperneck 28.8876 -5.63461 4.59518
head 11.3358 -1.94509 1.01093
rclavicle 2.38542e-014 -3.99557e-014
rhumerus 29.9451 1.66305 -30.1367
rradius 51.9147
rwrist -33.5463
rhand -28.249 -14.0365
rfingers 7.12502
rthumb -1.62638 -44.01
lclavicle 2.38542e-014 -3.99557e-014
lhumerus 41.27 -16.3245 14.1188
lradius 51.5134
lwrist 56.7388
lhand -32.4377 -0.265399
lfingers 7.12502
lthumb -5.67129 29.6387
rfemur -30.5457 2.89913 19.42
rtibia 31.6839
rfoot 17.457 -10.2733
rtoes 20.4135
lfemur -33.3003 -8.4423 -20.8496
ltibia 38.4201
lfoot 8.6252 2.97685
ltoes 32.449
